<?xml version="1.0" encoding="UTF-8"?>
<svg width="24px" height="24px" viewBox="0 0 24 24" version="1.1" xmlns="http://www.w3.org/2000/svg" xmlns:xlink="http://www.w3.org/1999/xlink">
    <!-- Generator: Sketch 41.2 (35397) - http://www.bohemiancoding.com/sketch -->
    <title>ig</title>
    <desc>Created with Sketch.</desc>
    <defs></defs>
    <g id="Page-1" stroke="none" stroke-width="1" fill="none" fill-rule="evenodd">
        <g id="Homepage" transform="translate(-108.000000, -2996.000000)">
            <g id="Footer" transform="translate(0.000000, 2769.000000)">
                <g id="ig" transform="translate(108.000000, 227.000000)">
                    <g id="Page-1">
                        <g>
                            <g id="Homepage">
                                <g id="ig">
                                    <g id="Social_Icons">
                                        <g id="_x37__stroke">
                                            <g id="Instagram_1_">
                                                <rect id="Rectangle-path" x="0" y="0" width="20" height="20"></rect>
                                                <path d="M19.8455626,5.5944375 C19.8455626,6.3898125 19.20075,7.0344375 18.4055626,7.0344375 C17.610375,7.0344375 16.9655626,6.3898125 16.9655626,5.5944375 C16.9655626,4.7990625 17.610375,4.1544375 18.4055626,4.1544375 C19.2009376,4.1544375 19.8455626,4.7990625 19.8455626,5.5944375 Z M12,15.9999374 C9.790875,15.9999374 8.0000625,14.209125 8.0000625,12 C8.0000625,9.790875 9.790875,8.0000625 12,8.0000625 C14.209125,8.0000625 15.9999374,9.790875 15.9999374,12 C15.9999374,14.209125 14.209125,15.9999374 12,15.9999374 Z M12,5.8378125 C8.5966875,5.8378125 5.8378125,8.5966875 5.8378125,12 C5.8378125,15.4033124 8.5966875,18.1621876 12,18.1621876 C15.4033124,18.1621876 18.1621876,15.4033124 18.1621876,12 C18.1621874,8.5966875 15.4033124,5.8378125 12,5.8378125 Z M12,2.16225 C15.2041876,2.16225 15.5836876,2.1744375 16.8489376,2.2321875 C18.0189376,2.285625 18.654375,2.481 19.0771876,2.6454375 C19.63725,2.863125 20.037,3.1231875 20.457,3.5431875 C20.877,3.963 21.1370626,4.36275 21.35475,4.923 C21.519,5.3458125 21.7145626,5.98125 21.768,7.15125 C21.82575,8.4166875 21.8379376,8.7961875 21.8379376,12.000375 C21.8379376,15.2045624 21.82575,15.5840624 21.768,16.8493124 C21.7145626,18.0193124 21.5191876,18.65475 21.35475,19.0775624 C21.1370626,19.637625 20.877,20.037375 20.457,20.457375 C20.0371876,20.877375 19.6374376,21.1374374 19.0771876,21.355125 C18.654375,21.519375 18.0189376,21.7149374 16.8489376,21.768375 C15.5836876,21.826125 15.2041876,21.8383124 12,21.8383124 C8.795625,21.8383124 8.416125,21.826125 7.150875,21.768375 C5.980875,21.7149374 5.3454375,21.5195624 4.922625,21.355125 C4.3625625,21.1374374 3.9628125,20.877375 3.5428125,20.457375 C3.123,20.0375624 2.86275,19.6378124 2.6450625,19.0775624 C2.4808125,18.65475 2.28525,18.0193124 2.2318125,16.8493124 C2.1740625,15.583875 2.161875,15.204375 2.161875,12.000375 C2.161875,8.7961875 2.1740625,8.4166875 2.2318125,7.15125 C2.28525,5.98125 2.480625,5.3458125 2.6450625,4.923 C2.86275,4.3629375 3.1228125,3.9631875 3.5428125,3.5431875 C3.962625,3.1231875 4.362375,2.863125 4.922625,2.6454375 C5.3454375,2.4811875 5.980875,2.285625 7.150875,2.2321875 C8.4163125,2.1744375 8.7958125,2.16225 12,2.16225 Z M12,0 C8.7410625,0 8.3323125,0.013875 7.0524375,0.0721875 C5.7751875,0.1305 4.90275,0.333375 4.139625,0.63 C3.3504375,0.9365625 2.68125,1.347 2.014125,2.014125 C1.347,2.68125 0.9365625,3.3504375 0.63,4.139625 C0.333375,4.9029375 0.1305,5.7751875 0.0721875,7.0524375 C0.013875,8.3323125 0,8.7410625 0,12 C0,15.2589374 0.013875,15.6676876 0.0721875,16.9475626 C0.1305,18.2248126 0.333375,19.0970624 0.63,19.860375 C0.9365625,20.6495624 1.347,21.31875 2.014125,21.985875 C2.68125,22.653 3.3504375,23.06325 4.139625,23.37 C4.9029375,23.666625 5.7751875,23.8695 7.0524375,23.9278124 C8.3323125,23.986125 8.7410625,24 12,24 C15.2589374,24 15.6676876,23.986125 16.9475626,23.9278124 C18.2248126,23.8695 19.0970624,23.666625 19.860375,23.37 C20.6495624,23.06325 21.31875,22.653 21.985875,21.985875 C22.653,21.31875 23.06325,20.6495624 23.37,19.860375 C23.666625,19.0970624 23.8695,18.2248126 23.9278124,16.9475626 C23.986125,15.6676876 24,15.2589374 24,12 C24,8.7410625 23.986125,8.3323125 23.9278124,7.0524375 C23.8695,5.7751875 23.666625,4.9029375 23.37,4.139625 C23.06325,3.3504375 22.653,2.68125 21.985875,2.014125 C21.31875,1.347 20.6495624,0.93675 19.860375,0.63 C19.0970624,0.333375 18.2248126,0.1305 16.9475626,0.0721875 C15.6676876,0.013875 15.2589374,0 12,0 Z" id="Instagram" fill="#656D78"></path>
                                            </g>
                                        </g>
                                    </g>
                                </g>
                            </g>
                        </g>
                    </g>
                </g>
            </g>
        </g>
    </g>
</svg>