<?xml version="1.0" encoding="UTF-8"?>
<svg width="27px" height="22px" viewBox="0 0 27 22" version="1.1" xmlns="http://www.w3.org/2000/svg" xmlns:xlink="http://www.w3.org/1999/xlink">
    <!-- Generator: Sketch 41.2 (35397) - http://www.bohemiancoding.com/sketch -->
    <title>tw</title>
    <desc>Created with Sketch.</desc>
    <defs></defs>
    <g id="Page-1" stroke="none" stroke-width="1" fill="none" fill-rule="evenodd">
        <g id="Homepage" transform="translate(-196.000000, -2997.000000)" fill="#656D78">
            <g id="Footer" transform="translate(0.000000, 2769.000000)">
                <g id="tw" transform="translate(196.000000, 228.000000)">
                    <g id="Layer_1">
                        <path d="M26.7418049,2.71780488 C25.7700488,3.1497561 24.7242439,3.44112195 23.6269268,3.5715122 C24.7473171,2.90078049 25.6063902,1.83834146 26.0115122,0.570926829 C24.963561,1.19282927 23.8034634,1.64409756 22.5677073,1.88770732 C21.5787805,0.833853659 20.1691707,0.174926829 18.6093171,0.174926829 C15.6146341,0.174926829 13.1865854,2.60297561 13.1865854,5.59819512 C13.1865854,6.02263415 13.2343415,6.43634146 13.3271707,6.83395122 C8.81985366,6.6075122 4.82336585,4.44882927 2.1484878,1.16760976 C1.68165854,1.96819512 1.41443902,2.89970732 1.41443902,3.89453659 C1.41443902,5.77580488 2.37170732,7.436 3.82692683,8.40829268 C2.93834146,8.37985366 2.10180488,8.13570732 1.37043902,7.7295122 C1.36990244,7.75204878 1.36990244,7.77512195 1.36990244,7.79819512 C1.36990244,10.4253171 3.23936585,12.6167317 5.72053659,13.1157561 C5.2655122,13.2391707 4.78634146,13.3057073 4.29160976,13.3057073 C3.9417561,13.3057073 3.60209756,13.2719024 3.27102439,13.2080488 C3.96160976,15.362439 5.96414634,16.930878 8.33692683,16.9743415 C6.48087805,18.4290244 4.14297561,19.2961463 1.60170732,19.2961463 C1.16439024,19.2961463 0.732439024,19.2703902 0.308,19.2199512 C2.70868293,20.7594146 5.55902439,21.6565854 8.62131707,21.6565854 C18.5969756,21.6565854 24.0513659,13.3931707 24.0513659,6.22653659 C24.0513659,5.9915122 24.0465366,5.75702439 24.0363415,5.52414634 C25.095561,4.76112195 26.0152683,3.80546341 26.7418049,2.71780488 Z" id="Shape"></path>
                    </g>
                </g>
            </g>
        </g>
    </g>
</svg>